<?xml version="1.0" encoding="UTF-8"?>
<svg viewBox="0 0 24 24" fill="white" xmlns="http://www.w3.org/2000/svg">
  <path d="M8.22 18.4799L2.71 11.9999L8.22 5.51994L10 7.34994L6.11 11.9999L10 16.6499L8.22 18.4799Z" fill="#FFA116"/>
  <path d="M13.39 21.9999H3C1.9 21.9999 1 21.0999 1 19.9999V3.99994C1 2.89994 1.9 1.99994 3 1.99994H13.4C14.5 1.99994 15.4 2.89994 15.4 3.99994V7.34994H13.4V3.99994H3V19.9999H13.39V16.6499H15.39V19.9999C15.39 21.0999 14.49 21.9999 13.39 21.9999Z" fill="black"/>
  <path d="M16.59 14.4799L14.8 16.3099L8.92 10.9999L14.8 5.68994L16.59 7.51994L12.67 11.0299L16.59 14.4799Z" fill="#2684FF"/>
  <path d="M18.52 16.4799L16.73 18.3099L10.85 12.9999L16.73 7.68994L18.52 9.51994L14.6 13.0299L18.52 16.4799Z" fill="#2684FF"/>
</svg>